<svg version="1.1" xmlns="http://www.w3.org/2000/svg" xmlns:xlink="http://www.w3.org/1999/xlink" width="22" height="19"><defs/><g><path fill="rgb(235,178,64)" stroke="none" paint-order="stroke fill markers" fill-rule="evenodd" d=" M 20.000024557113647 9.00011682510376 C 20.000024557113647 9.00011682510376 1.0000605583190918 9.00011682510376 1.0000605583190918 9.00011682510376 C 1.0000605583190918 9.00011682510376 1.0000605583190918 10.000330448150635 1.0000605583190918 10.000330448150635 C 1.0000605583190918 10.000330448150635 20.000024557113647 10.000330448150635 20.000024557113647 10.000330448150635 C 20.000024557113647 10.000330448150635 20.000024557113647 9.00011682510376 20.000024557113647 9.00011682510376 Z M 11.985494613647461 16.28473424911499 C 11.985494613647461 16.28473424911499 19.284679412841797 8.985620975494385 19.284679412841797 8.985620975494385 C 19.284679412841797 8.985620975494385 20.01459789276123 9.715396404266357 20.01459789276123 9.715396404266357 C 20.01459789276123 9.715396404266357 12.715413093566895 17.01473617553711 12.715413093566895 17.01473617553711 C 12.715413093566895 17.01473617553711 11.985494613647461 16.28473424911499 11.985494613647461 16.28473424911499 Z M 11.985494613647461 2.715486526489258 C 11.985494613647461 2.715486526489258 19.284679412841797 10.014599800109863 19.284679412841797 10.014599800109863 C 19.284679412841797 10.014599800109863 20.01459789276123 9.28482437133789 20.01459789276123 9.28482437133789 C 20.01459789276123 9.28482437133789 12.715413093566895 1.9854846000671387 12.715413093566895 1.9854846000671387 C 12.715413093566895 1.9854846000671387 11.985494613647461 2.715486526489258 11.985494613647461 2.715486526489258 Z"/></g></svg>