<svg version="1.1" xmlns="http://www.w3.org/2000/svg" xmlns:xlink="http://www.w3.org/1999/xlink" width="23" height="19"><defs/><g><path fill="rgb(255,80,0)" stroke="none" paint-order="stroke fill markers" fill-rule="evenodd" d=" M 2.0000522136688232 9.000063419342041 C 2.0000522136688232 9.000063419342041 21.00001621246338 9.000063419342041 21.00001621246338 9.000063419342041 C 21.00001621246338 9.000063419342041 21.00001621246338 10.00005054473877 21.00001621246338 10.00005054473877 C 21.00001621246338 10.00005054473877 2.0000522136688232 10.00005054473877 2.0000522136688232 10.00005054473877 C 2.0000522136688232 10.00005054473877 2.0000522136688232 9.000063419342041 2.0000522136688232 9.000063419342041 Z M 10.01458215713501 16.28468084335327 C 10.01458215713501 16.28468084335327 2.715397357940674 8.985567569732666 2.715397357940674 8.985567569732666 C 2.715397357940674 8.985567569732666 1.9854788780212402 9.715342998504639 1.9854788780212402 9.715342998504639 C 1.9854788780212402 9.715342998504639 9.284663677215576 17.01468276977539 9.284663677215576 17.01468276977539 C 9.284663677215576 17.01468276977539 10.01458215713501 16.28468084335327 10.01458215713501 16.28468084335327 Z M 10.01458215713501 2.715433120727539 C 10.01458215713501 2.715433120727539 2.715397357940674 10.014546394348145 2.715397357940674 10.014546394348145 C 2.715397357940674 10.014546394348145 1.9854788780212402 9.284770965576172 1.9854788780212402 9.284770965576172 C 1.9854788780212402 9.284770965576172 9.284663677215576 1.98543119430542 9.284663677215576 1.98543119430542 C 9.284663677215576 1.98543119430542 10.01458215713501 2.715433120727539 10.01458215713501 2.715433120727539 Z"/></g></svg>